<svg version="1.0" xmlns="http://www.w3.org/2000/svg" width="682.7" height="682.7" viewBox="0 0 512 512"><path d="m249 2-6 6c-2 4-2 6-2 31s0 28 2 31c3 5 6 7 13 7s10-2 13-7c2-3 2-6 2-31s0-27-2-31c-4-7-13-10-20-6zM80 72c-2 0-4 2-5 4-4 4-5 12-2 17a327 327 0 0 0 43 41c11 3 21-7 18-18-1-4-5-8-18-22-21-21-24-23-30-23l-7 1zM417 74a446 446 0 0 0-39 41c-3 12 7 22 19 19 3-1 7-5 22-19l20-22c3-4 2-12-1-16-4-7-14-8-21-3zM234 131c-46 8-84 41-99 85a129 129 0 0 0 143 165 128 128 0 0 0 99-163c-11-37-38-66-74-80a144 144 0 0 0-69-7zm48 31c34 10 59 36 68 69 2 7 2 11 2 25 1 14 0 18-2 25-9 33-35 60-69 69-5 2-11 2-21 3-15 0-22 0-34-5a99 99 0 0 1-64-66c-2-8-3-10-3-26 0-15 1-18 3-25 9-32 32-57 62-67 12-4 18-5 34-5 13 1 18 1 24 3zM8 243c-4 2-8 8-8 13s4 11 8 13 6 2 31 2c30 0 32 0 37-6 2-4 2-14 0-18-5-6-7-6-37-6-25 0-28 0-31 2zM442 243c-5 3-7 6-7 13s2 10 7 13c3 2 6 2 31 2s27 0 31-2c5-2 8-8 8-13s-3-11-8-13c-4-2-6-2-31-2s-28 0-31 2zM115 379a316 316 0 0 0-42 40c-2 2-2 4-2 9 1 4 1 6 4 9s5 3 9 4c5 0 7 0 9-2a327 327 0 0 0 41-43c3-11-8-22-19-17zM388 378c-5 2-8 4-9 9-2 4-2 5-1 9s4 7 18 22l21 20c7 5 17 4 21-3 3-3 4-9 3-14-1-3-37-39-41-41-4-3-8-3-12-2zM249 435l-5 5c-2 3-2 4-3 32 0 26 0 28 2 32s8 8 13 8 11-3 13-8c2-4 2-6 2-31s0-28-2-31l-4-5c-4-3-11-3-16-2z"/></svg>