<svg version="1.0" xmlns="http://www.w3.org/2000/svg" width="682.7" height="682.7" viewBox="0 0 512 512"><path d="M250 33c-5 2-9 7-10 11v15c0 9 1 11 3 14 4 5 7 6 13 6s10-1 13-6c2-3 2-5 2-17 1-15 0-17-6-21-3-3-11-4-15-2zM103 94c-5 2-9 7-10 11-1 8 1 11 10 21 10 9 13 11 21 9 5 0 11-6 12-11 1-8-1-11-9-20-11-11-16-13-24-10zM397 94c-3 1-18 15-20 19s-1 12 1 16c3 4 8 7 13 7 7 0 9-1 19-11 8-9 10-12 9-20-2-9-13-14-22-11zM209 115a147 147 0 0 0-94 166 147 147 0 0 0 173 116c51-11 92-46 109-95l3-13c-1-6-5-10-11-13-4-1-5-1-13 1a114 114 0 0 1-136-68c-10-24-11-47-5-73 2-9 2-9 1-13-4-11-13-13-28-8zM42 241c-10 5-13 17-6 25 4 5 9 6 22 6s15-1 19-7c3-4 3-14 0-18-4-6-6-6-20-7l-15 1zM442 241c-10 5-13 17-6 25 4 5 9 6 22 6 10 0 12-1 15-3 5-3 7-7 7-13s-2-9-7-13c-3-2-5-2-16-3l-15 1zM113 378c-2 1-7 5-11 10-8 8-10 11-9 19 1 5 7 11 12 11 8 2 11 0 20-8 9-10 11-12 11-18 0-12-14-20-23-14zM386 377c-5 2-9 7-10 11-1 8 0 11 10 21 10 9 13 11 21 9 5 0 11-6 11-11 2-8 0-11-8-20-11-11-17-13-25-10zM250 433c-5 2-9 7-10 11v15c1 12 1 14 7 18 4 3 14 3 18 0 6-4 7-6 7-21s-1-17-7-21c-3-3-11-4-15-2z"/></svg>