<svg xmlns="http://www.w3.org/2000/svg" viewBox="0 0 195.1 195.1" xml:space="preserve"><path d="m179.6 15.5-.1-.2a53 53 0 0 0-74.8.3L71.2 49a7.5 7.5 0 1 0 10.6 10.6l33.6-33.5.1-.2a38.3 38.3 0 0 1 53.6.3 38 38 0 0 1 0 53.5l-33.6 33.5a7.5 7.5 0 1 0 10.6 10.6l33.5-33.5a53 53 0 0 0 0-74.8zM113.2 135.4 79.7 169l-.2.2A38 38 0 0 1 26 115.4l33.5-33.6A7.5 7.5 0 1 0 49 71.3l-33.4 33.5a53 53 0 1 0 75 74.6l33.3-33.4a7.5 7.5 0 1 0-10.6-10.6z"/><path d="M59.1 136a7.5 7.5 0 0 0 10.7 0l66.1-66.3a7.5 7.5 0 1 0-10.6-10.6l-66.1 66.2c-3 3-3 7.7 0 10.6z"/></svg>