<svg xmlns="http://www.w3.org/2000/svg" data-name="Layer 1" viewBox="0 0 693 616"><path d="M676 258c-12 96-74 181-154 237l-19 13-3 2c-47 28-101 46-156 40a165 165 0 0 1-115-65 121 121 0 0 1-21-49c-5-26-1-55-15-78-19-29-59-34-94-33-32 1-65 5-97 7H0V23A23 23 0 0 1 23 0h140c7 1 12 15 19 15h55c9 0 20-14 29-15h260l5 2a215 215 0 0 1 25 10c86 44 132 149 120 246Z" fill="#3f3d56"/><path d="M567 129c-40 38-93 62-148 67l-16 2a214 214 0 0 1-10 0h-7a256 256 0 0 1-40-5h-2l-6-1-12-3a187 187 0 0 1-10-3l-2-1h-2l-12-5a255 255 0 0 1-67-38l-8-7c-15-12-30-24-48-27-20-3-39 6-58 15l-19 9a153 153 0 0 1-98 4H0v-2h2a151 151 0 0 0 97-4l19-9c19-9 39-18 59-15 19 3 34 16 49 28l8 7a253 253 0 0 0 66 37 264 264 0 0 0 14 5l2 1 5 1 5 2 13 3a195 195 0 0 0 8 1 253 253 0 0 0 39 5h17l15-1c55-6 108-30 148-67a1 1 0 0 1 1 1Z" fill="#6c63ff"/><path d="M0 91a2 2 0 0 1 0 1v-3a3 3 0 0 1 0 2Z" fill="#ff6584"/><ellipse cx="259.4" cy="243.3" rx="3.3" ry="2.3" transform="rotate(-84 53 314)" fill="#e6e6e6"/><ellipse cx="262.2" cy="264.5" rx="3.3" ry="2.3" transform="rotate(-84 56 335)" fill="#3f3d56"/><ellipse cx="753.4" cy="432.6" rx="3.6" ry="5.2" transform="rotate(-76 535 524)" fill="#fff"/><ellipse cx="719.6" cy="432.4" rx="3.6" ry="5.2" transform="rotate(-76 502 524)" fill="#3f3d56"/><ellipse cx="759.8" cy="460.7" rx="3.6" ry="5.2" transform="rotate(-76 542 553)" fill="#ff6584"/><ellipse cx="770.4" cy="472.3" rx="3.3" ry="2.3" transform="rotate(-84 564 543)" fill="#e6e6e6"/><ellipse cx="773.2" cy="493.5" rx="3.3" ry="2.3" transform="rotate(-84 567 564)" fill="#3f3d56"/><ellipse cx="738.6" cy="453.1" rx="3.3" ry="2.3" transform="rotate(-84 532 524)" fill="#e6e6e6"/><ellipse cx="755.7" cy="446.7" rx="3.3" ry="2.3" transform="rotate(-84 550 517)" fill="#ff6584"/><ellipse cx="734.7" cy="429.4" rx="3.3" ry="2.3" transform="rotate(-84 529 500)" fill="#3f3d56"/><ellipse cx="298.4" cy="195.6" rx="3.6" ry="5.2" transform="rotate(-76 80 287)" fill="#fff"/><ellipse cx="264.6" cy="195.4" rx="3.6" ry="5.2" transform="rotate(-76 47 287)" fill="#3f3d56"/><ellipse cx="304.8" cy="223.7" rx="3.6" ry="5.2" transform="rotate(-76 87 316)" fill="#ff6584"/><ellipse cx="315.4" cy="235.3" rx="3.3" ry="2.3" transform="rotate(-84 109 306)" fill="#e6e6e6"/><ellipse cx="318.2" cy="256.5" rx="3.3" ry="2.3" transform="rotate(-84 112 327)" fill="#3f3d56"/><ellipse cx="283.6" cy="216.1" rx="3.3" ry="2.3" transform="rotate(-84 77 287)" fill="#e6e6e6"/><ellipse cx="300.7" cy="209.7" rx="3.3" ry="2.3" transform="rotate(-84 95 280)" fill="#ff6584"/><ellipse cx="279.7" cy="192.4" rx="3.3" ry="2.3" transform="rotate(-84 74 263)" fill="#3f3d56"/><circle cx="158.4" cy="194.1" r="4" fill="#fff"/><circle cx="60.4" cy="234.1" r="2" fill="#fff"/><circle cx="457.4" cy="383.1" r="2" fill="#fff"/><circle cx="199.4" cy="291.1" r="2" fill="#fff"/><circle cx="235.4" cy="82.1" r="2" fill="#fff"/><circle cx="562.4" cy="159.1" r="2" fill="#fff"/><circle cx="97.4" cy="55.1" r="2" fill="#fff"/><circle cx="461.4" cy="43.1" r="4" fill="#fff"/><path d="M640 575h-2c0-12-10-23-32-34-21-10-51-20-89-28l-17-3c-31-6-64-11-101-15l-23-2h-7l-21-2c-38-2-77-4-117-4h-8c-52 0-64 5-65 9-1 11 59 32 118 52a654 654 0 0 1 156 68h-2l-3-2c-24-19-91-43-152-64-75-26-121-43-119-54 1-5 10-11 67-11h6c40 0 80 2 117 4l22 2h8l23 2c38 4 72 9 104 15l15 3c79 17 122 39 122 64Z" fill="#e6e6e6"/><path d="M609 570h-2c0-9-35-18-86-18-52 0-87 9-87 18h-2c0-13 45-20 89-20s88 7 88 20Z" fill="#e6e6e6"/><path d="M574 576h-2c0-5-21-11-51-11s-52 6-52 11h-2c0-8 28-13 54-13s53 5 53 13Z" fill="#e6e6e6"/><circle cx="360.4" cy="94.1" r="40" fill="#f2f2f2"/><circle cx="354.4" cy="97.1" r="40" fill="#f2f2f2"/><path d="M398 535h-37a15 15 0 0 1 14-15l7-5 13 5h3Z" fill="#f2f2f2"/><path d="m381 515-32 19a15 15 0 0 1 5-20l3-8 13-2 3-2Z" fill="#f2f2f2"/><path d="m403 409-1 11-4 101-15-5s-18-54-15-84l-2-11-4-18-11-54-3 18c0 3-2 5-3 5-5 0-4-1-3 4a254 254 0 0 1-8 42l5 9 35 76-14 7-53-78-5-8-1-9-9-68s-3-8 0-8 5 0 4-2c-1-3 15-52 15-52l83 18s8 16 5 24c-3 7 3 67-1 70-3 3-5 0-1 5a8 8 0 0 0 3 2c3 1 4-1 3 5Z" fill="#f2f2f2"/><circle cx="354.1" cy="99" r="23.1" fill="#a0616a"/><path d="m372 119-9 2s8-14 8-20c-1-7-7-9-7-9l-8 1a20 20 0 0 0-2-4 7 7 0 0 1-2 5 11 11 0 0 1-4-1c-2-1-2-2-1-3a42 42 0 0 0-15 4 41 41 0 0 1 0-9h1a20 20 0 0 0 4-2 7 7 0 0 1-4-2l4-5a16 16 0 0 1 13-1s-4-3-3-5a6 6 0 0 0 1 1c1 1 3 0 3-2v-1a3 3 0 0 1 1 0c3-1 13 2 17 10 0 0 27 13 3 41Z" fill="#3f3d56"/><path d="M364 324a9 9 0 0 1 7-10 9 9 0 0 1 1 0l25-56 16 13-32 53a9 9 0 0 1-7 8 9 9 0 0 1-10-7v-1ZM296 329a9 9 0 0 0 0-13 9 9 0 0 0-1 0l13-60h-20l-5 62a9 9 0 0 0 1 11 9 9 0 0 0 12 0Z" fill="#6c63ff"/><path d="M429 229c-3 4-7 0-3 6 3 4-13 41-23 63l-8 18-17-10-2-1 21-53 2-5v-10a14 14 0 0 1-1-2l-14-44-5-16-7-23 23 1 1 2a980 980 0 0 1 18 31c7 14 13 28 11 29-4 4-8 2-3 7s10 3 7 7Z" fill="#f2f2f2"/><path d="M402 283c-6-6-5-33-5-33s6-91-2-97a113 113 0 0 0-18-11l-6-15-31-1-6 10-2 1c-5 0-17 3-16 11 1 9-8 70-11 73s-2 14 5 21 2 26-3 34a27 27 0 0 0-4 16s4 22 14 15c4-3 9-3 16-3v1c9 1 20 3 32 3l-1-1h7c18-2 26 3 28-2 2-6 9-16 3-22Z" fill="#f2f2f2"/><circle cx="354.4" cy="97.1" r="30" fill="#6c63ff" opacity=".3"/><path d="m340 142-10 33-5 17-11 35v10l-1 10a963 963 0 0 1-13 67h-19s4-80 8-85c4-6 0-2-3-6s2-2 7-7 1-3-3-7a609 609 0 0 1 26-64l1-2Z" fill="#f2f2f2"/><path d="M381 146c-21 8-39 10-55 0v-18c18 11 37 11 55 0ZM397 261c-32 8-61 10-85 0v-18c28 11 57 11 85 0ZM403 409l-1 11a148 148 0 0 1-36 1l-4-18a113 113 0 0 0 38 1c3 1 4-1 3 5ZM339 427a195 195 0 0 1-32 5l-5-8-1-9a119 119 0 0 0 35-4l-2 7Z" fill="#3f3d56"/><path d="M341 184a10 10 0 0 1-20 0c0-5 9-17 10-10s10 5 10 10Z" fill="#6c63ff"/><path d="M332 167h-1a17 17 0 0 0-17 16 26 26 0 0 0 0 2 17 17 0 0 0 32 8 16 16 0 0 0 1-2 17 17 0 0 0-15-24Zm12 26a17 17 0 0 1-13 6 15 15 0 0 1-15-13 14 14 0 0 1 0-2 15 15 0 0 1 15-15l1 1c4 10 13 9 14 14a10 10 0 0 1-1 7 12 12 0 0 1-1 2Z" fill="#6c63ff"/><path d="M670 0H23A23 23 0 0 0 0 23v570a23 23 0 0 0 23 23h647a23 23 0 0 0 23-23V23a23 23 0 0 0-23-23Zm21 593a21 21 0 0 1-21 21H23a21 21 0 0 1-21-21V23A21 21 0 0 1 23 2h647a21 21 0 0 1 21 21Z" fill="none"/></svg>