<svg xmlns="http://www.w3.org/2000/svg" viewBox="0 0 731.7 550.6"><circle cx="317.7" cy="132.6" r="46" fill="#ff6884"/><path d="m0 334 1 1h729l2-1-2-1H1l-1 1Z" fill="#3f3d56"/><path fill="#a0616a" d="m467 82 4 49 55-24-31-49-28 24z"/><circle cx="465.3" cy="55.2" r="41.3" fill="#a0616a"/><path fill="#a0616a" d="m388 441 7 62-49-6 16-58 26 2zM579 450l7 62-49-6 16-58 26 2z"/><path d="m462 260-89 5c-17 0-29 15-28 32l12 162 36 1 1-131 71 4-3-73Z" fill="#2f2e41"/><path d="M619 259s9 69 2 76-226-5-226-5 48-70 57-72c8-2 146-9 146-9l21 10Z" fill="#2f2e41"/><path d="M335 172c-8-11-9-25-2-31 8-5 21 0 29 12 3 5 6 10 7 16l34 50-19 13-36-48c-5-3-10-7-13-12ZM466 331c-13 7-27 5-31-3s3-20 15-26c5-3 11-5 17-5l54-27 11 21-53 29c-4 5-8 8-13 11Z" fill="#a0616a"/><path d="m465 113 51-21 96 148s-67 15-90 18-49-9-49-9l-8-136Z" fill="#e6e6e6"/><path d="m527 138-19-58 24 18s68 45 68 64 21 77 21 77 24 20 16 38 10 15 12 28-28 31-28 31-8-74-32-74-62-124-62-124ZM469 111l-26 10s4 70 8 76 18 38 18 38v11s-28 8-27 13 66 19 66 19-13-40-21-53-18-114-18-114Z" fill="#3f3d56"/><path d="M527 97s56-3 68 27 22 128 22 128l-122 66-21-32 82-64-29-125ZM452 121s-29-4-34 30-1 39-1 39l-9 19-27-30-26 17s47 76 66 74 47-57 47-57l-16-92Z" fill="#3f3d56"/><path d="m597 270-15 210-38-1-9-202c0-3 4-20 29-21s33 14 33 14ZM541 484s20-6 23-2 20 6 20 6l5 49-16 12c-2 2-55 4-56-8s14-27 14-27l10-30ZM394 470s6-5 8 9 9 37-1 40-110 4-110-5v-9l9-7 18-3s35-32 39-32 17 13 17 13l20-6ZM506 78s-20-24-28-22-3 5-3 5l-20-22s-16-6-31 13c0 0-9-16 0-25s12-8 14-13 16-9 16-9-1-8 4-4 15 4 15 4 0-4 5 0 9 2 9 2 0 7 3 7c4 0 10-5 11-1s8 6 9 18-4 47-4 47Z" fill="#2f2e41"/><g><rect x="104.7" y="107.2" width="197.9" height="35.1" rx="17.5" ry="17.5" fill="#3f3d56"/><path fill="#fff" d="M125 31h160v175H125z"/><path d="M286 207H124V30h162v177Zm-160-2h158V32H126v173Z" fill="#3f3d56"/><rect x="91.8" y="132.7" width="227.1" height="46.8" rx="23.4" ry="23.4" fill="#3f3d56"/><ellipse cx="332.3" cy="157.5" rx="4.2" ry="14" fill="#3f3d56"/><ellipse cx="73.4" cy="156.3" rx="5" ry="13.6" fill="#3f3d56"/><path fill="#3f3d56" d="M75 154h29v3H75zM306 156h24v4h-24zM302 338H129c-13 0-24-11-24-25V189c0-13 11-24 24-24h173c14 0 25 11 25 24v124c0 14-11 25-25 25Z"/><circle cx="123.5" cy="258.3" r="5.4" fill="#6c63ff"/><circle cx="131" cy="275.9" r="5.4" fill="#6c63ff"/><circle cx="136.5" cy="291.7" r="5.4" fill="#6c63ff"/><circle cx="146.1" cy="308" r="5.4" fill="#6c63ff"/><circle cx="161.9" cy="308" r="5.4" fill="#6c63ff"/><circle cx="177.8" cy="308" r="5.4" fill="#6c63ff"/><circle cx="193.7" cy="308" r="5.4" fill="#6c63ff"/><circle cx="209.5" cy="308" r="5.4" fill="#6c63ff"/><circle cx="225.4" cy="308" r="5.4" fill="#6c63ff"/><circle cx="241.2" cy="308" r="5.4" fill="#6c63ff"/><circle cx="257.1" cy="308" r="5.4" fill="#6c63ff"/><circle cx="273" cy="308" r="5.4" fill="#6c63ff"/><circle cx="288.8" cy="308" r="5.4" fill="#6c63ff"/><circle cx="152.6" cy="291.7" r="5.4" fill="#6c63ff"/><circle cx="168.8" cy="291.7" r="5.4" fill="#6c63ff"/><circle cx="184.9" cy="291.7" r="5.4" fill="#6c63ff"/><circle cx="201.1" cy="291.7" r="5.4" fill="#6c63ff"/><circle cx="217.2" cy="291.7" r="5.4" fill="#6c63ff"/><circle cx="233.4" cy="291.7" r="5.4" fill="#6c63ff"/><circle cx="249.6" cy="291.7" r="5.4" fill="#6c63ff"/><circle cx="265.7" cy="291.7" r="5.4" fill="#6c63ff"/><circle cx="281.9" cy="291.7" r="5.4" fill="#6c63ff"/><circle cx="298" cy="291.7" r="5.4" fill="#6c63ff"/><circle cx="147.3" cy="275.9" r="5.4" fill="#6c63ff"/><circle cx="163.6" cy="275.9" r="5.4" fill="#6c63ff"/><circle cx="179.9" cy="275.9" r="5.4" fill="#6c63ff"/><circle cx="196.2" cy="275.9" r="5.4" fill="#6c63ff"/><circle cx="212.4" cy="275.9" r="5.4" fill="#6c63ff"/><circle cx="228.7" cy="275.9" r="5.4" fill="#6c63ff"/><circle cx="245" cy="275.9" r="5.4" fill="#6c63ff"/><circle cx="261.3" cy="275.9" r="5.4" fill="#6c63ff"/><circle cx="277.6" cy="275.9" r="5.4" fill="#6c63ff"/><circle cx="293.9" cy="275.9" r="5.4" fill="#6c63ff"/><circle cx="310.1" cy="275.9" r="5.4" fill="#6c63ff"/><circle cx="139.8" cy="258.3" r="5.4" fill="#6c63ff"/><circle cx="156.1" cy="258.3" r="5.4" fill="#6c63ff"/><circle cx="172.4" cy="258.3" r="5.4" fill="#6c63ff"/><circle cx="188.6" cy="258.3" r="5.4" fill="#6c63ff"/><circle cx="204.9" cy="258.3" r="5.4" fill="#6c63ff"/><circle cx="221.2" cy="258.3" r="5.4" fill="#6c63ff"/><circle cx="237.5" cy="258.3" r="5.4" fill="#6c63ff"/><circle cx="253.8" cy="258.3" r="5.4" fill="#6c63ff"/><circle cx="270.1" cy="258.3" r="5.4" fill="#6c63ff"/><circle cx="286.3" cy="258.3" r="5.4" fill="#6c63ff"/><circle cx="302.6" cy="258.3" r="5.4" fill="#6c63ff"/><circle cx="128.1" cy="187.8" r="21.3" fill="#6c63ff"/><circle cx="300.9" cy="187.8" r="21.3" fill="#6c63ff"/><path d="M181 179h65c3 0 6 2 7 5l18 37c2 5-1 11-7 11h-96c-5 0-9-5-7-10l12-37c1-3 4-6 8-6Z" fill="#6c63ff"/></g><path fill="#3f3d56" d="M156 57h96v2h-96zM156 75h96v2h-96zM156 93h96v2h-96z"/></svg>